<?xml version="1.0" encoding="UTF-8"?>
<svg xmlns="http://www.w3.org/2000/svg" viewBox="0 0 553.325581395350127 480.66666666666697">
  <defs>
    <style>
      .cls-1 {
        fill: #b7e4ef;
        stroke: #396e78;
        stroke-width: 3px;
      }

      .cls-1, .cls-2, .cls-3, .cls-4 {
        stroke-miterlimit: 10;
      }

      .cls-2, .cls-5 {
        fill: #fff;
      }

      .cls-2, .cls-3 {
        stroke-width: 5px;
      }

      .cls-2, .cls-3, .cls-4 {
        stroke: #000;
      }

      .cls-6 {
        fill: #c9dfe4;
      }

      .cls-3, .cls-4 {
        fill: none;
      }

      .cls-4 {
        stroke-linecap: round;
        stroke-width: 7px;
      }
    </style>
  </defs>
  <g id="_图层_2" data-name="图层 2">
    <path class="cls-6" d="M221.996118944744921,20.00002034505178c-21.217376708984375,2.0191650390625-52.796630859375,5.0244140625-81.333328247070312,20-36.946784973145441,19.38909912109375-55.039657592773438,51.62603759765625-61.777778625488281,64-16.208213806152344,29.76495361328125-18.739044189453125,56.206024169921875-20.888885498046875,78.666656494140625-3.7789306640625,39.480712890625,2.836166381835938,69.96563720703125,5.777778625488281,81.77777099609375,3.5985107421875,14.449920654296875,7.9930419921875,26.22723388671875,11.555549621582031,34.666656494140625-.711837768554688,1.555938720703125-2.823532104492188,5.625579833984375-7.555549621582031,8.4444580078125-4.10333251953125,2.444366455078125-8.03314208984375,2.671173095703125-9.777778625488281,2.666656494140625-6.103729248046875,3.178497314453125-17.731925964355469,10.308502197265625-26.666667938232422,24-4.293811798095703,6.579803466796875-15.382652282714844,26.04083251953125-10.222225189208984,50.22222900390625,5.224952697753906,24.483779907226562,23.605674743652344,37.39471435546875,31.111114501953125,42.666656494140625,19.206230163574219,13.49078369140625,38.693550109863281,14.88189697265625,50.222221374511719,15.555557250976562,26.353553771972656,1.5399169921875,47.097602844238281-6.556076049804688,58.222221374511719-12,3.076568603515625,5.390396118164062,8.45556640625,13.23223876953125,17.333328247070312,20,18.863037109375,14.37982177734375,40.229339599609375,13.777740478515625,56,13.333343505859375,9.524246215820312-.268386840820312,37.258560180664062-1.422470092773438,64.444442749023438-20.444442749023438,11.022613525390625-7.7125244140625,18.671783447265625-16.0650634765625,23.555572509765625-22.22222900390625,7.617462158203125,5.553756713867188,20.408782958984375,13.191360473632812,37.77777099609375,16.444442749023438,6.824859619140625,1.278244018554688,30.751190185546875,5.409149169921875,55.5555419921875-7.111114501953125,7.351287841796875-3.710647583007812,19.23040771484375-9.706756591796875,27.555572509765625-23.555557250976562,8.2694091796875-13.756072998046875,8.329620361328125-27.4371337890625,8-33.33331298828125,1.783355712890625,2.430755615234375,4.766082763671875,5.7557373046875,9.33331298828125,8,6.475250244140625,3.18182373046875,13.318359375,2.80706787109375,24.888916015625,0,18.13214111328125-4.398956298828125,27.1982421875-6.59844970703125,34.6666259765625-12.4444580078125,14.0308837890625-10.98291015625,23.175537109375-30.05999755859375,21.3333740234375-49.77777099609375-1.69219970703125-18.112762451171875-12.00634765625-29.8182373046875-16-34.22222900390625-17.7469482421875-19.570404052734375-41.748931884765625-21.37872314453125-48.4444580078125-21.77777099609375-13.897308349609375-.828277587890625-25.05584716796875,2.42999267578125-31.5555419921875,4.888885498046875-1.5101318359375-1.636505126953125-3.3704833984375-4.170623779296875-4-7.555572509765625-1.129913330078125-6.07568359375,2.363555908203125-11.35491943359375,3.5555419921875-13.33331298828125,3.243194580078125-5.38287353515625,4.08807373046875-14.847839355469659,5.77777099609375-33.777770996094659,1.4775390625-16.552978515625-3.03216552734375-42.361358642577216-15.111114501953125-69.777770996092841-10.361114501953125-23.517333984375-40.06256103515625-90.93255615234375-105.77777099609375-114.22222900390625-38.605804443359375-13.6820068359375-86.80438232421875-11.1300048828125-95.555557250976562-10.66668701171875-5.630081176756903.298095703125-10.289031982421875.72607421875-12,.888916015625Z"/>
    <path class="cls-4" d="M221.996118944744921,20.00002034505178c-14.848495483398438-.4007568359375-47.2471923828125.7818603515625-81.333328247070312,20-38.079833984375,21.46978759765625-55.611572265625,52.67633056640625-61.777778625488281,64-16.208213806152344,29.76495361328125-18.739044189453125,56.206024169921875-20.888885498046875,78.666656494140625-3.7789306640625,39.480712890625,2.836166381835938,69.96563720703125,5.777778625488281,81.77777099609375,3.5985107421875,14.449920654296875,7.9930419921875,26.22723388671875,11.555549621582031,34.666656494140625-.711837768554688,1.555938720703125-2.823532104492188,5.625579833984375-7.555549621582031,8.4444580078125-4.10333251953125,2.444366455078125-8.03314208984375,2.671173095703125-9.777778625488281,2.666656494140625-6.103729248046875,3.178497314453125-17.731925964355469,10.308502197265625-26.666667938232422,24-4.293811798095703,6.579803466796875-15.382652282714844,26.04083251953125-10.222225189208984,50.22222900390625,5.224952697753906,24.483779907226562,23.605674743652344,37.39471435546875,31.111114501953125,42.666656494140625,19.206230163574219,13.49078369140625,38.693550109863281,14.88189697265625,50.222221374511719,15.555557250976562,26.353553771972656,1.5399169921875,47.097602844238281-6.556076049804688,58.222221374511719-12,3.076568603515625,5.390396118164062,8.45556640625,13.23223876953125,17.333328247070312,20,18.863037109375,14.37982177734375,40.229339599609375,13.777740478515625,56,13.333343505859375,9.524246215820312-.268386840820312,37.258560180664062-1.422470092773438,64.444442749023438-20.444442749023438,11.022613525390625-7.7125244140625,18.671783447265625-16.0650634765625,23.555572509765625-22.22222900390625,7.617462158203125,5.553756713867188,20.408782958984375,13.191360473632812,37.77777099609375,16.444442749023438,6.824859619140625,1.278244018554688,30.751190185546875,5.409149169921875,55.5555419921875-7.111114501953125,7.351287841796875-3.710647583007812,19.23040771484375-9.706756591796875,27.555572509765625-23.555557250976562,8.2694091796875-13.756072998046875,8.329620361328125-27.4371337890625,8-33.33331298828125,1.783355712890625,2.430755615234375,4.766082763671875,5.7557373046875,9.33331298828125,8,6.475250244140625,3.18182373046875,13.318359375,2.80706787109375,24.888916015625,0,18.13214111328125-4.398956298828125,27.1982421875-6.59844970703125,34.6666259765625-12.4444580078125,14.0308837890625-10.98291015625,23.175537109375-30.05999755859375,21.3333740234375-49.77777099609375-1.69219970703125-18.112762451171875-12.00634765625-29.8182373046875-16-34.22222900390625-17.7469482421875-19.570404052734375-41.748931884765625-21.37872314453125-48.4444580078125-21.77777099609375-13.897308349609375-.828277587890625-25.05584716796875,2.42999267578125-31.5555419921875,4.888885498046875-1.5101318359375-1.636505126953125-3.3704833984375-4.170623779296875-4-7.555572509765625-1.129913330078125-6.07568359375,2.363555908203125-11.35491943359375,3.5555419921875-13.33331298828125,3.243194580078125-5.38287353515625,4.08807373046875-14.847839355469659,5.77777099609375-33.777770996094659,1.4775390625-16.552978515625-3.03216552734375-42.361358642577216-15.111114501953125-69.777770996092841-11.19952392578125-25.42022705078125-38.22686767578125-86.76605224609375-105.77777099609375-114.22222900390625-37.29217529296875-15.157470703125-72.39288330078125-14.07586669921875-95.555557250976562-10.66668701171875"/>
  </g>
  <g id="_图层_3" data-name="图层 3">
    <path class="cls-2" d="M46.647486132244921,223.82948811848928c5.539726257324219,5.2158203125,10.012924194335938,9.471496582030341,13.015304565429688,12.337188720703125,7.181327819824219,6.8543701171875,11.027885437011719,10.5836181640625,18.166664123535156,17.33331298828125,3.369659423828125,3.186004638671875,6.123176574707031,5.7484130859375,7.833335876464844,7.333343505859375,1.444442749023438-1.888885498046875,2.888893127441406-3.77777099609375,4.333335876464844-5.666656494140625-7.46734619140625-6.91314697265625-13.304718017578125-12.72100830078125-17.333335876464844-16.833343505859375-4.013099670410156-4.09649658203125-6.794952392578125-7.085815429688409-11.333335876464844-11-5.222030639648438-4.503784179688409-9.887916564941406-7.746673583984375-13.075126647949219-9.81536865234375"/>
    <path class="cls-2" d="M38.597948473553515,225.129933675129905c-2.5892333984375,7.754547119139716-4.584213256835938,14.591705322264716-6.101825714111328,20.203399658203125-1.6375732421875,6.055267333984375-3.095729827880859,12.075469970703125-3,19.833343505859375.025798797607422,2.09063720703125.102104187011719,8.274444580078125,1.5,8.5.747665405273438.120635986328125,1.977031707763672-1.446441650390625,5.166667938232422-10.66668701171875,3.992420196533203-11.54083251953125,6.057971954345703-20.624176025390625,6.333332061767578-21.83331298828125,1.391216278076172-6.109039306640625,3.525730133056641-15.144256591797784,6.500003814697266-26.5"/>
    <path class="cls-5" d="M55.912790697674609,193.166676839192405c4.206642150878906-3.743743896484375,8.778556823730469-7.090972900390625,12.75-11.083343505859375,4.899070739746094-4.924896240234375,8.047798156738281-8.060424804688409,12.25-11.75.468254089354559-.4111328125,2.728836059570312-2.024078369140625,7.25-5.25,2.436180114746094-1.738250732421875,4.080482482910156-2.87823486328125,6.416664123535156-2.916656494140625.677261352539062-.011138916015625,2.111602783203125.058807373046875,3.583335876464844.83331298828125,2.423919677734375,1.27557373046875,3.435585021972656,3.66571044921875,4.25,5.66668701171875,2.655120849609375,6.523529052734375,3.982681274414062,9.7852783203125,4.5,12,.662216186523438,2.83502197265625,1.061599731445312,7.09527587890625,1.833328247070312,15.5.645919799804688,7.03460693359375.83978271484375,10.449005126952216.166671752929688,14.916656494140625-.670257568359375,4.44873046875-1.633819580078125,6.182769775390625-2.083328247070312,6.916656494140625-2.640296936034247,4.31072998046875-7.037841796875,5.940582275390625-9.083335876464844,6.66668701171875-1.4232177734375.505218505859375-5.348983764648438,1.732452392577216-14.833335876464844.416656494140625-8.8134765625-1.22271728515625-15.655479431152344-3.702026367188409-16.916664123535156-4.166656494140625-9.03375244140625-3.32806396484375-11.780906677246094-6.1470947265625-16.833335876464844-5-2.702102661132812.613494873046875-4.536048889160156,2.01458740234375-6.916667938232422,3.83331298828125-5.438297271728516,4.15472412109375-5.329704284667969,7.034210205078125-9.666664123535156,10.833343505859375-1.117408752441406.978851318359375-8.110599517822266,7.10479736328125-13.925697326660156,5.13751220703125-3.874137878417969-1.310638427734375-5.364398956298828-5.583892822265625-7.824302673339844-12.63751220703125-3.00602912902832-8.61962890625-2.693044662475586-15.077728271484375-2.333333969116211-22.5.188396453857422-3.887359619140625.593156814575195-6.138824462890625,2.166666030883789-8.166656494140625,2.393451690673828-3.08453369140625,6.111766815185547-3.8741455078125,8.666667938232422-4.41668701171875,5.417331695556641-1.150390625,9.911247253417969.111846923828125,12.166664123535156.75,3.198162078857422.9049072265625,6.854331970214844,2.519927978515625,14.166667938232422,5.75,1.17633056640625.519622802734375,3.296470642089844,1.465728759765625,5.833335876464844,1,2.266716003417969-.4161376953125,3.770576477050781-1.758331298829034,4.416664123535156-2.33331298828125ZM16.287790697674609,207.499989827473655c1.913902282714844,4.0118408203125,3.177593231201172,7.4140625,4,9.875,1.311977386474609,3.9259033203125,1.717216491699219,6.103485107420966,3.458332061767578,6.75,1.121036529541016.416259765625,2.398887634277344.050384521484375,5.791667938232422-2.08331298828125,4.921524047851562-3.095123291015625,8.246921539306641-6.107574462890625,10.25-7.958343505859375,7.306892395019531-6.75128173828125,7.765892028808594-7.974945068359375,7.5-9-.265594482421875-1.02392578125-1.972343444824219-1.80767822265625-5.375-3.333343505859375-10.107303619384766-4.531890869140625-10.824596405029297-4.7491455078125-12.208332061767578-4.83331298828125-2.07318115234375-.1260986328125-6.3497314453125-.38623046875-9.666667938232422,2.625-2.962230682373047,2.689208984375-3.406772613525391,6.396697998046875-3.5,7.58331298828125M57.121126574139453,208.166676839192405c4.610824584960938,3.33392333984375,9.552978515625,5.301849365234375,16.5,7.041656494140625,5.338859558105469,1.337066650390625,9.936874389648438,2.057342529296875,15.041664123535156,2,3.62213134765625-.040679931640625,5.915557861328125-.455078125,7.833335876464844-2,.475784301757812-.383270263671875,2.119346618652344-1.795532226563409,3.416664123535156-6.125,2.155166625976562-7.192352294921875.704856872558594-13.59210205078125,0-16.541656494140625-.932884216308594-3.90374755859375-2.21136474609375-6.519989013672784-3.708335876464844-9.583343505859375-2.187416076660156-4.47625732421875-3.2811279296875-6.714385986328125-5-7.166656494140625-2.688247680664062-.707305908203125-4.927467346191406,2.318878173827216-11.583328247070312,7.75-3.372726440429688,2.752105712890625-7.0355224609375,5.128326416015625-10.541671752929688,7.70831298828125-11.721229553222656,8.625030517578125-15.304420471191406,11.12054443359375-14.791664123535156,13.833343505859375.143722534179688.760375976561591.595527648925781,1.46527099609375,2.833335876464844,3.083343505859375Z"/>
    <path class="cls-3" d="M58.079454821209765,190.499989827473655c5.570114135742188-5.564239501954034,4.66107177734375-4.060882568359375,12.75-12,4.365333557128906-4.28448486328125,4.276695251464844-4.395416259765625,6.174720764160156-6.02410888671875,3.552597045898438-3.048492431640625,6.730033874511719-5.119354248046875,9.325279235839844-6.8092041015625,7.286659240722656-4.74468994140625,9.525169372558594-4.578857421875,10.666671752929688-4.333343505859375,4.880546569824219,1.049774169921875,7.253959655761719,7.33062744140625,9.333328247070312,12.833343505859375.950675964355469,2.515838623046875,2.471733093261719,7.124664306640625,3.666664123535156,23.666656494140625,1.014114379882812,14.038726806640625.327713012695312,16.382934570311591-.833328247070312,18.5-3.626602172851562,6.612823486328125-10.742866516113281,8.92828369140625-12.5,9.5-4.466171264648438,1.453155517578125-8.326698303222656.80731201171875-16-.333343505859375-6.143875122070312-.913299560546875-10.708915710449219-2.25567626953125-16-3.83331298828125-5.756149291992188-1.716278076172784-10.788642883300781-3.515350341797784-15-5.16668701171875-1.5.388885498045966-3,.777801513670966-4.5,1.16668701171875-3.26507568359375,3.92974853515625-6.158004760742188,7.06744384765625-8.333332061767578,9.33331298828125-4.944435119628906,5.15020751953125-6.599582672119141,6.231781005859375-8.166667938232422,7-1.955169677734375.958465576170966-6.398372650146484,3.1365966796875-10.666667938232422,1.5-3.618755340576172-1.387542724609375-5.235153198242188-4.797576904296875-7-8.666656494140625-.673480987548828-1.476470947265625-3.130966186523438-7.13153076171875-3.333332061767578-17.833343505859375-.179616928100586-9.498748779296875-.279008865356445-14.7550048828125,3.5-18.33331298828125,3.008537292480469-2.8487548828125,6.943206787109375-3.183349609375,10.666667938232422-3.5,7.000499725341797-.5953369140625,13.039840698242188,1.640655517577216,18,3.5,7.137088775634766,2.675384521484375,10.119586944580078,5.155853271484375,13.916667938232422,3.666656494140625,1.102851867675781-.432525634765625,1.324005126953125-.82720947265625,4.333328247070312-3.833343505859375Z"/>
    <path class="cls-3" d="M50.162790697674609,205.499989827473655c-8.203357696533203-4.92181396484375-8.662712097167969-5.59515380859375-12-7-5.547904968261719-2.335418701171875-10.452239990234375-4.39990234375-15.333332061767578-2.33331298828125-3.645282745361328,1.543365478515625-6.951446533203125,5.252716064452216-7.333335876464844,9.33331298828125-.186988830566406,1.998046875.463554382324219,2.627197265625,3.833335876464844,10.16668701171875,3.298358917236328,7.379669189452216,3.504428863525391,8.632415771484375,5,9.166656494140625,2.350669860839844.839721679686591,4.830104827880859-1.187488943083736,11-6.166656494140625,15.340984344482422-12.38031005859375,13.574024200439453-10.79193115234375,15.499996185302734-12.5,10.736427307128906-9.52166748046875,9.100166320800781-8.73382568359375,14.5-13.16668701171875,10.64141845703125-8.735809326171875,9.423744201660156-5.579193115234375,17.666671752929688-12.666656494140625,3.792671203613281-3.261016845703125,6.321296691894531-5.881805419921875,9-5.166656494140625,1.943656921386719.5189208984375,2.933326721191406,2.630767822265625,4.833328247070312,6.83331298828125,1.385055541992188,3.06353759765625,3.399261474610284,7.617706298828125,4.166671752929688,14.16668701171875.419471740723566,3.579681396484375.224090576171875,6.21978759765625-.166671752929688,11.5-.317924499511719,4.295989990234375-.707061767578125,5.636810302734375-1.666664123535156,6.83331298828125-1.818107604979559,2.2669677734375-4.670150756835938,2.75177001953125-7.333335876464844,3.16668701171875-4.071327209471747.634307861327216-7.393836975096747.208953857421875-11.333328247070312-.5-8.232711791992188-1.481536865234375-12.34906005859375-2.222320556640625-17.333335876464844-4.333343505859375-2.643089294433594-1.11944580078125-6.09539794921875-3.19073486328125-13-7.333343505859375Z"/>
    <path d="M138.662790697674609,228.999989827473655c1.876556396484375-1.2000732421875,4.371109008789062-.497100830079034,5.666671752929688,0,13.643157958984375,1.424957275390625,27.477767944335938,2.76129150390625,41.5,4,10.936965942383722.966156005859375,21.771148681640625,1.853729248045966,32.5,2.66668701171875,6.099777221679688-.354095458984375,10.634368896484375.950714111327216,13.333328247070312,2,2.792160034179688,1.085540771484375,4.800537109375,1.8963623046875,6,3.83331298828125,2.063842773438409,3.33282470703125.847320556640625,8.5697021484375-2.833343505859375,13.5-8.933135986327216,11.966064453125-16.395782470702216,22.112518310546875-24.333328247070312,30.5-10.336074829101562,10.921966552734375-16.147201538085938,17.52777099609375-26.888885498046875,23.333343505859375-5.283798217773438,2.855743408203125-9.434371948242188,4.2606201171875-12.944442749023438,2.5-4.023330688476562-2.01806640625-6.165191650390625-7.673431396484375-5.055557250976562-12.0555419921875.643478393554688-2.54119873046875,2.189300537109375-3.8995361328125,6.72222900390625-7.611114501953125,8.204208374023438-6.717620849609375,12.675384521484375-10.075225830078125,17-13.66668701171875,5.919418334960938-4.9158935546875,9.883407592773438-8.8741455078125,11-10,4.500640869140625-4.538055419921875,7.944717407226562-8.63995361328125,10.333328247070312-11.666656494140625,1.048294067382812-.957977294921875,2.346435546875-2.414306640625,2-3.666656494140625-.557037353515625-2.013671875-5.048324584960938-2.352203369140625-7-2.5-30.482040405273438-2.308502197265625-26.23309326171875-2.378204345703125-30.5-2.333343505859375-8.11236572265625.085296630859375-16.22064208984375-.452880859375-24.333328247070312-.5-5.99407958984375-.034820556640625-12.194564819335938-.003997802734375-14.21844482421875-3.61688232421875-.817276000976562-1.45892333984375-.694259643554688-3.211456298828125-.448226928710938-6.716461181640625.27288818359375-3.887481689454034.470458984375-6.70208740234375,2.5-8Z"/>
    <path d="M374.496134203533984,173.999989827473655c-1.223846435546875.126922607420966-2.23040771484375.7833251953125-3,1.5-8.75286865234375,5.53179931640625-18.137115478515625,12.037353515625-27.833343505859375,19.66668701171875-8.923004150390625,7.02093505859375-16.849090576171875,14.00128173828125-23.833343505859375,20.666656494140625-2.748138427734375,3.186279296875-5.143707275390625,5.570190429686591-6.83331298828125,7.166656494140625-2.456268310546875,2.32086181640625-3.57391357421875,3.122528076170966-3.66668701171875,4.66668701171875-.1585693359375,2.6397705078125,2.823333740234375,5.03045654296875,4.330657958984375,6.238922119140625,1.61962890625,1.29852294921875,3.07373046875,1.984619140625,3.669342041015625,2.261077880859375,5.032135009765625,2.33575439453125,7.548187255859375,3.503631591796875,11.16668701171875,4.5,7.510345458984375,2.0679931640625,14.547149658203125,5.577667236328125,21.83331298828125,8.33331298828125,9.3883056640625,3.550689697265625,19.331756591796875,5.597198486328125,28.555572509765625,9.555572509765625.727508544921875.31219482421875,3.057525634765625,1.33563232421875,6.0555419921875,1.111114501953125.9849853515625-.073760986328125,2.847198486328125-.213226318359375,4.66229248046875-1.420257568359375,2.99444580078125-1.99127197265625,3.76715087890625-5.495941162109375,4.226593017578125-7.579742431640625.204254150390625-.9263916015625.549163818359375-2.49078369140625.393585205078125-3.662384033203125-.759307861328125-5.717468261719659-14.259796142578125-8.2626953125-32.726898193359375-13.337615966796875-7.386627197265625-2.0299072265625-13.53167724609375-3.904998779297784-17.962738037109375-5.307586669922784-.5704345703125-.112121582030341-1.45703125-.290496826170966-2.537261962890625-.525756835936591-4.993499755859375-1.08746337890625-7.538360595703125-1.640716552734375-7.66668701171875-2.5-.190032958984375-1.272491455078125,2.55743408203125-2.752227783203125,5-3.833343505859375,4.587554931640625-3.016693115234375,9.262115478515625-6.234405517579034,14-9.666656494140625,9.684844970703125-7.015960693359375,18.481964111328125-14.093597412109375,26.437713623046875-21.02508544921875,1.0030517578125-.609283447265625,3.72589111328125-2.454559326171875,4.3956298828125-5.641571044921875,1.1456298828125-5.451507568359375-4.39251708984375-11.609954833984375-8.666656494140625-11.16668701171875Z"/>
    <path class="cls-1" d="M158.921531744940694,313.140088387565811c-.714615299221805.983704486965507-4.964185863312196,7.052206878473953-2.987309696191005,13.213109075506509.847124446558155,2.640053050015922,2.485706243723143,4.200435831438881,4.710764880295756,6.319319896396337,1.855064948088511,1.76654669176969,6.203346779830099,5.805156634296509,13.328009243511588,7.583190187137006,8.516513427682185,2.125416428258177,15.380307383036779-.381748786694516,17.694089398446522-1.26387029074067,3.008831782040943-1.147108241410024,8.305395019566276-3.166397434019018,12.064138952769099-8.617260141869338,1.293897071805986-1.876366132764815,4.364738969235987-6.329670694283777,3.561794757560165-11.949238784765839-1.14897012273741-8.041244550935517-9.301722430785048-11.975052664858595-10.915168830032599-12.753539960796843-5.522198008531632-2.664509965754405-10.493074021697794-2.113519322150751-16.08553438234776-1.493639069440178-6.976784906067223.773343454304268-16.161713730209158,1.791413852546611-21.370784324011765,8.961929088573015Z"/>
    <path class="cls-2" d="M420.936549628536341,113.465441304812884c-2.189633513042281,7.286896020730637-3.935698428240357,13.209018748828385-5.102990032331945,17.19197112582151-2.792027266848891,9.52672255817015-4.258619857324447,14.679624912283543-7.066136140301751,24.094421440941915-1.325208344069324,4.443990665499769-2.428619923068254,8.039860051075266-3.117196113082173,10.267529708798065-2.195366863934396-.913601451769864-4.390740335118608-1.827199088841553-6.586107199054823-2.74080054060687,3.010338014864828-9.720633993939373,5.161719644078403-17.669075358709961,6.594437449810357-23.244771044543086,1.427197971810529-5.554219941674091,2.341693675203715-9.533972364784859,4.314956779548083-15.192947379602629,2.270519103822153-6.511406832460125,4.68985014444479-11.652774400745329,6.415707509551794-15.037921924029433"/>
    <path class="cls-2" d="M428.557876508176378,110.566891364212097c6.119615458617773,5.421018101166737,11.265897797298749,10.34468086587367,15.386035906121833,14.445744490679317,4.445813695019751,4.425228717108439,8.718715659015288,8.909798843845238,12.514747963345144,15.676179318804316,1.022976189289693,1.823444330251732,4.048797469820784,7.216931302305056,2.950961893835483,8.111215932344749-.58717924136181.478306531374074-2.435380508188246-.264139360593617-9.807809192887362-6.65428795783464-9.227953572066326-7.998444045022552-15.55844561968479-14.832074393869334-16.401482949291676-15.741537666726799-4.259348292018331-4.594975093485118-10.62550015733359-11.352445864034962-18.879168427043624-19.699671294069049"/>
    <path class="cls-5" d="M402.572754687854285,91.355696328172598c2.42985411888003-.865099679813284,3.792896305600152-2.744521511032872,4.55181705805262-3.782693341744562,4.717632698953821-6.453492410385479,7.076458329636807-9.680226354751539,9.39369432220883-12.062980040314869,1.634171767660519-1.680365210428135,4.894898029015167-5.02045277205707,10.161640210695623-6.73285111399764,2.483880028717977-.807595836382461,6.098841294095109-1.982929506286382,9.713898106563647-.508370815820854,2.376614969980437.969399445658382,3.852880146578173,2.716845015803301,5.959716070976356,5.989198972822123,4.02265446234378,6.248020524247295,7.522756643660614,11.684406401635897,9.22927350599457,20.652238570261943,1.396470582123584,7.338565434436532,2.242493827405269,11.784442835925802-.457288779385635,14.856557948565751-4.052379850094439,4.611267825976938-13.171633728778033,2.802638311006376-14.628763753966268,2.51363257891353-5.655484045973935-1.121666031745008-7.001182802347103-3.66967062393087-13.788248453491178-4.548618623054608-2.9710393661735-.384753035577887-5.259829653450652-.681161645124121-7.906666638198658.138587540132903-4.949079400717892,1.532801425562866-5.918669376438629,5.347730797123404-12.078096500217725,12.746794956432495-.859902919053638,1.032973839444821-5.545596675388879,6.601119922363068-12.5669326319221,12.066762433783879-7.555791918402974,5.881688729697998-11.569221939518684,6.781756002781549-13.054373939377911,7.055832828873463-2.134502204402452.393921892199614-6.757813915681254,1.181200830524176-11.199743125909663-1.231852373666698-.756229284188521-.4108102084856-2.457718117717377-1.430751293439243-5.262543433160317-4.948336109954653-2.816756875967258-3.532544098447943-4.356065763187871-6.586431130146593-7.313986274162744-13.001539340355521-3.534025560729788-7.664568858690473-5.318276217867606-11.553748740642732-6.162291163702321-14.340057882563087-.659349681502135-2.176664599754076-1.140523262141869-5.665202538682934-2.102885682212218-12.642304845538092-.295184220929514-2.140104024533684-.614124691908728-4.715855813628878.84726446064451-7.032494907392902.887305438822295-1.40660808474513,2.094508410993512-2.184354063232604,2.686603405321875-2.513338155227757,2.042403464132803-1.134816711810345,4.03640315188386-.969712678538599,7.01532238564505-.682433443309492,5.528403642483681.533148113058814,8.2925978343319.799708955088136,8.903684177381365.92163337040256,5.484001145685397,1.094164927010752,9.778643360550632,2.235248609878909,16.483811196116221,4.050798495454728,5.435555982983715,1.471772777847036,11.068564735523978,2.084600791426055,16.58349565098797,3.223457035935098.847019159642514.174904926584531,2.820497335289474.585348447329125,4.991599825118101-.18762373863774ZM438.660061631345343,83.944073711095371c-.674044780073018-.98102503285827-2.91277389215611-3.969533737506936-6.822745407098409-4.817341693107664-4.37816649992601-.949333836390906-7.95170177637192,1.41422208813492-9.684080004610223,2.560017283602065-1.156266490670532.764759004557163-1.668832945686518,1.311553433528388-8.156069209804627,10.289937862688021-2.183954375714166,3.022593170382606-3.270166114425592,4.55471717605451-2.988214792743747,5.574260155435695.282258214147078,1.02066962549543,1.291595222326578,1.850893338188143,10.995190528141393,4.044228634717911,2.66010135418037.601273777560891,7.046205645343434,1.547434274600164,12.855932141614176,1.767127648885435,4.00508268755766.151446095712345,5.294671828603896-.170622200536855,6.057388058998185-1.091631996866454,1.184592868399704-1.430456105861595.446749334701963-3.518916804972832-.379996579333238-7.574837506452241-.518243595823151-2.542437776557563-1.124965971530401-6.120693654751449-1.473398384230677-10.552000862458954M404.946774390386963,101.050947319349689c-.912339512953622-2.605731085828666-5.263230832510089-2.975314073872141-19.726628647882535-4.584194834764276-4.326407642429331-.481259267267887-8.686592396619744-.707728751178365-12.983512030450584-1.404758992484858-8.479705537221889-1.37555902258282-11.932018693145437-2.876701481591226-13.906456522281587-.920032756627734-1.26245162491432,1.251113784229346-1.090569543150195,3.73624598907827-.74679877237395,8.706506584078852.235262218257049,3.401428376229887.436186328584881,6.30640020366809,1.580158677539657,10.153586867593731.864353263836165,2.906817514125578,2.808223051575624,9.174318257389132,8.27082824621175,14.325494745095966,3.288243802535362,3.100770324417681,5.417741503089928,3.502043902760306,6.021417926964205,3.596073536774384,2.433305417405791.379052583188241,4.626670136685789-.408781310784434,7.78386786552619-2.184617130199513,4.449548855322064-2.502734779588536,8.07140856713886-5.42551940400881,12.026463246727872-9.252882868616325,5.146393521952632-4.980227913197268,8.442461362874383-9.155578809089093,10.768590916231915-14.348253408003984,1.128962519114793-2.52019601232405,1.167789716329935-3.356555563612346.912069093787068-4.086921742846243Z"/>
    <path class="cls-3" d="M394.371425184500367,90.317233432296234c-7.605980094385814-2.03371569401952-6.067047852151518-1.186291577676457-17.041823898010989-4.017304846433035-5.922732188015289-1.527805955522126-5.901434861794769-1.668194515787036-8.359519486270074-2.129670949483625-4.600885506924897-.863773366370879-8.388057427615422-1.068473893026749-11.48053076632641-1.234304114273982-8.682776981862844-.465692402495733-10.538467362972369.797177837997879-11.404280464892508,1.580550316384688-3.701790229060862,3.349404384079207-2.616799619809171,9.975489417658537-1.666227611834984,15.780665615000544.434609775464196,2.65411814158324,1.421748502736591,7.406006829702164,8.657903967607126,22.329257808851253,6.141114587238917,12.66495124164976,7.907659490150763,14.351894033249664,9.971683430718258,15.604805847075113,6.447141354041378,3.913572043861677,13.767737157981173,2.360687231719567,15.575317547187296,1.977241336884617,4.594395531685223-.974616038177373,7.614788266306277-3.46419644022717,13.689734708117612-8.288683943441356,4.86410215334945-3.862878181443193,8.146354917906137-7.307930806865443,11.939749967088574-11.319746427794598,4.126832477015341-4.364415059673775,7.585563638902386-8.438704140395203,10.407037551622125-11.974482204927881,1.493480854725931-.41321527944001,2.986976968240924-.826404129879847,4.480457822965036-1.239619409318948,4.792512754744166,1.770724220420561,8.866710483074712,3.041583532050026,11.883533757569239,3.916220119150239,6.857110180608288,1.987992987273174,8.831296751233822,2.097089326365676,10.572541898660347,1.978843858008986,2.172459397723287-.147529301120812,7.109451597782027-.482813918613829,9.98760540848707-4.034295862840736,2.440162692893864-3.011024918490875,2.13498721063479-6.772400074725738,1.728849580078531-11.005544689697672-.154983829354023-1.615401842064784-.854269124476559-7.741569900831564-6.029921507166364-17.110794541732503-4.593821566466431-8.315966211363047-7.13587367535365-12.91771349458395-12.197745406541799-14.127114784112564-4.029847164869352-.962825451671051-7.60466826609445.714741762252743-10.98760540837975,2.302245055213461-6.360279058540982,2.984672970899737-10.472505547666515,7.940769705573985-13.838457268839193,12.031088912416635-4.843207928375705,5.885495348024051-6.18589273464022,9.524893383209928-10.218859724078357,10.133751639380534-1.171360551412363.176847746274689-1.560226811006942-.054381854187341-5.669444097760788-1.153108734309171Z"/>
    <path class="cls-3" d="M408.727457428170055,99.349282428153856c4.64340917960908-8.364094774245132,4.704551838070984-9.176901384626035,6.89230484613654-12.062177826079278,3.636917289995836-4.796484407600474,6.851954186660805-9.036547198565131,12.112398596591447-9.687374352990446,3.928590200746839-.486047660726399,8.646487322965186,1.073262284598968,11.017511657379146,4.416218211750675,1.160960514896942,1.636864936488564.912148761533899,2.506996763999268,1.763577254960182,10.72127716281102.833371981119853,8.040160448259485,1.281283463622458,9.228105785974549.253201227524187,10.438557391707036-1.615878975668238,1.902555237039451-4.776737955511635,1.386656822231998-12.60960768870973.15951881890669-19.47583719049544-3.051170846393688-17.151415365182402-2.55907443462911-19.673390454849141-3.07531945583105-14.058852533922618-2.877792271750877-12.247888054092982-3.013631754550261-19.140711860485681-4.152685436973115-13.58364337904095-2.244723571378927-10.950798435014804-.119850870238224-21.633114785299767-2.136310429767946-4.915058033326204-.927787829034969-8.415306229884663-1.933144568324678-10.377556881132477.025544222826284-1.423795821028762,1.421227141208874-1.224951547243109,3.744975126061945-.769128553150949,8.334486763350469.332275513610512,3.345629156036011.865006357800667,8.296757910709857,3.474899917733637,14.352046716285258,1.426567514408816,3.309830897256688,2.915825666785167,5.498539353973683,5.89434197153787,9.875956267408583,2.423325687967008,3.561474216337047,3.430738603865393,4.528090034898014,4.860029964394926,5.084490578384248,2.708011259383056,1.054197879029743,5.420354204687101.04802736419515,7.934198669418038-.924236539774938,3.843026721273418-1.486336882775504,6.507727580794381-3.515959138412654,9.56495017175439-6.099676824853304,6.388969121606351-5.39940445755019,9.583439445766999-8.099116086127651,12.844437449160978-12.419453496862843,1.729259573196032-2.291013148749698,3.683402038906934-5.810956422732488,7.591658497036406-12.850861770297342Z"/>
  </g>
</svg>